<svg width="33" height="24" viewBox="0 0 33 24" fill="none" xmlns="http://www.w3.org/2000/svg">
<path d="M30.8668 0H2.86682C2.33639 0 1.82768 0.210714 1.45261 0.585786C1.07753 0.960859 0.866821 1.46957 0.866821 2V22C0.866821 22.5304 1.07753 23.0391 1.45261 23.4142C1.82768 23.7893 2.33639 24 2.86682 24H30.8668C31.3973 24 31.906 23.7893 32.281 23.4142C32.6561 23.0391 32.8668 22.5304 32.8668 22V2C32.8668 1.46957 32.6561 0.960859 32.281 0.585786C31.906 0.210714 31.3973 0 30.8668 0ZM29.3268 22H4.52682L11.5268 14.76L10.0868 13.37L2.86682 20.84V3.52L15.2968 15.89C15.6715 16.2625 16.1784 16.4716 16.7068 16.4716C17.2352 16.4716 17.7421 16.2625 18.1168 15.89L30.8668 3.21V20.71L23.5068 13.35L22.0968 14.76L29.3268 22ZM4.17682 2H29.2468L16.7068 14.47L4.17682 2Z" fill="black"/>
</svg>
